:SAMPLES-PER-SECOND 30
:FULLY-SPECIFIED
:DEGREES
347
root  70.2269 38.4781 -22.0095 177.276 -73.7967 -178.276
RightUpLeg  -6.21849 -10.3204 -4.30979
RightLeg  19.0923 3.60959 1.43979
RightFoot  -10.3833 -0.078602 0.960767
RightToes  -8.14909e-010 0 -3.6325e-017
Spine  5.32055 0.151327 12.9065
Spine1  6.38418 2.06159 -3.35787
HEad  -7.42734 -8.3327 -4.09361
LeftShoulder1  -0.766677 5.45902 -33.0514
LeftArm  0.734474 15.8908 -42.0289
LeftForeArm  21.5862 -21.6258 -3.99197
LeftHand  0.0117066 8.54742 1.96458
RightShoulder  -0.694864 -5.5827 26.7563
RightArm  8.65584 3.9954 42.258
RightForeArm  12.4594 19.593 3.89379
RightHand  -0.0150833 4.23295 -0.512267
LeftUpLeg  -16.736 -2.50777 3.68237
LeftLeg  49.8611 -1.6317 -1.61809
LeftFoot  -0.193816 0.0956613 -1.12738
LeftToes  1.648e-009 -9.21574e-011 2.55256e-011
348
root  69.6641 38.5811 -22.3942 179.713 -75.2703 179.452
RightUpLeg  -4.34929 -11.2963 -5.19463
RightLeg  17.7301 3.25887 1.80682
RightFoot  -11.1326 -0.0766563 0.849015
RightToes  -8.14909e-010 0 -3.6325e-017
Spine  5.20148 0.214978 12.9192
Spine1  5.63359 2.16885 -4.32729
HEad  -7.32451 -9.54427 -4.10644
LeftShoulder1  -0.754265 5.43725 -32.8342
LeftArm  0.907025 15.8915 -41.9138
LeftForeArm  22.2465 -21.3343 -4.02131
LeftHand  -0.007686 7.51461 1.62259
RightShoulder  -0.777125 -5.81084 27.0607
RightArm  6.74191 5.43138 42.7487
RightForeArm  11.2737 21.15 4.0331
RightHand  -0.070085 2.52228 -1.22916
LeftUpLeg  -18.1332 -0.881587 2.26494
LeftLeg  45.7292 -2.7967 -2.70294
LeftFoot  0.741841 -0.275409 2.41169
LeftToes  1.648e-009 -9.21574e-011 2.55256e-011
349
root  69.0996 38.6443 -22.7221 -177.2 -76.5737 176.913
RightUpLeg  -3.10305 -11.6318 -5.78871
RightLeg  16.5659 2.40872 1.76358
RightFoot  -11.8697 -0.07576 1.06376
RightToes  -8.14909e-010 0 -3.6325e-017
Spine  4.34787 0.683094 12.7829
Spine1  5.84871 2.55071 -4.94179
HEad  -6.82021 -11.4704 -3.62073
LeftShoulder1  -0.662802 5.22366 -32.3939
LeftArm  1.1487 15.4869 -42.4963
LeftForeArm  22.2328 -21.3012 -4.04105
LeftHand  0.00832243 8.36596 2.18223
RightShoulder  -0.812773 -5.92788 26.9152
RightArm  6.15474 6.58162 43.219
RightForeArm  11.4067 23.8949 4.50942
RightHand  -0.0531027 3.31359 -0.932463
LeftUpLeg  -19.5112 0.846186 0.985884
LeftLeg  39.7187 -2.50342 -1.86243
LeftFoot  -2.09451 0.250341 -2.83324
LeftToes  1.648e-009 -9.21574e-011 2.55256e-011
350
root  68.507 38.7167 -23.0269 -173.832 -77.3502 174.087
RightUpLeg  -1.75819 -11.7266 -6.29197
RightLeg  15.0813 1.80771 1.66804
RightFoot  -12.455 -0.0714764 1.25864
RightToes  -8.14909e-010 0 -3.6325e-017
Spine  4.61037 1.0423 12.3029
Spine1  4.59502 2.7844 -5.44415
HEad  -6.8917 -11.4083 -3.6341
LeftShoulder1  -0.695362 5.27432 -33.1106
LeftArm  1.549 15.7754 -41.5308
LeftForeArm  22.2525 -21.2215 -4.06939
LeftHand  -0.0153237 5.91511 3.19886
RightShoulder  -0.723688 -5.67744 26.6301
RightArm  6.45484 7.34755 43.8913
RightForeArm  12.6852 26.1623 4.94274
RightHand  -0.181885 3.5589 -2.66243
LeftUpLeg  -20.2417 3.01881 -0.420202
LeftLeg  32.324 -2.97497 -1.66097
LeftFoot  -2.68214 0.347083 -4.35641
LeftToes  1.648e-009 -9.21574e-011 2.55256e-011
351
root  67.8907 38.7679 -23.2952 -170.15 -78.1536 170.924
RightUpLeg  -0.397204 -11.6614 -6.74719
RightLeg  13.6512 0.941346 1.41583
RightFoot  -13.1961 -0.0590877 1.89476
RightToes  -8.14909e-010 0 -3.6325e-017
Spine  4.42749 1.1763 11.7271
Spine1  4.25931 2.85114 -6.0552
HEad  -7.18128 -11.4105 -3.47443
LeftShoulder1  -0.759912 5.43675 -33.1477
LeftArm  1.68917 15.9818 -41.1986
LeftForeArm  21.2898 -21.6558 -4.01693
LeftHand  0.0124907 7.92485 2.23509
RightShoulder  -0.649134 -5.46598 26.3786
RightArm  6.30849 8.45113 44.9096
RightForeArm  13.9514 26.7681 5.01275
RightHand  -0.132736 4.97389 -1.77038
LeftUpLeg  -20.6088 4.40872 -1.8107
LeftLeg  24.1911 -3.98828 -1.61834
LeftFoot  -2.66345 0.359847 -4.52402
LeftToes  1.648e-009 -9.21574e-011 2.55256e-011
352
root  67.2549 38.8467 -23.5413 -166.09 -78.501 167.309
RightUpLeg  1.04787 -11.4186 -7.20817
RightLeg  11.9578 0.240829 1.01656
RightFoot  -13.3634 -0.052725 2.14442
RightToes  -8.14909e-010 0 -3.6325e-017
Spine  4.76606 1.57036 10.9048
Spine1  3.64382 3.31747 -6.96314
HEad  -7.81876 -11.6186 -2.62684
LeftShoulder1  -0.684037 5.27047 -32.5603
LeftArm  1.17728 16.4394 -41.4076
LeftForeArm  20.8892 -21.4339 -4.06854
LeftHand  0.0379989 9.1348 2.57679
RightShoulder  -0.77292 -5.80823 26.9117
RightArm  8.20685 9.29117 45.0494
RightForeArm  13.0315 27.7705 5.29118
RightHand  -0.254576 5.00798 -3.14429
LeftUpLeg  -20.5273 4.33666 -2.82765
LeftLeg  15.7178 -3.14742 -0.892982
LeftFoot  -2.04282 0.406636 -4.85152
LeftToes  1.648e-009 -9.21574e-011 2.55256e-011
353
root  66.5445 38.8748 -23.7535 -163.21 -78.7578 164.611
RightUpLeg  2.90054 -11.2341 -7.62272
RightLeg  10.3224 -0.288844 0.747186
RightFoot  -13.6734 -0.0446044 2.36469
RightToes  -8.14909e-010 0 -3.6325e-017
Spine  4.76682 1.94119 9.94826
Spine1  3.8806 3.71367 -7.22007
HEad  -8.24324 -11.6087 -2.28298
LeftShoulder1  -0.695606 5.31364 -32.2417
LeftArm  1.05796 16.505 -41.6247
LeftForeArm  21.8636 -21.1255 -4.08791
LeftHand  -0.00198454 8.77297 1.43655
RightShoulder  -0.809962 -5.91778 26.9252
RightArm  9.61751 9.76751 45.7887
RightForeArm  12.432 28.2596 5.43744
RightHand  -0.278021 5.52181 -3.27443
LeftUpLeg  -19.7732 2.13744 -2.71567
LeftLeg  7.29093 0.106068 -0.571017
LeftFoot  -1.80866 0.35832 -4.16983
LeftToes  1.648e-009 -9.21574e-011 2.55256e-011
